<?xml version="1.0" encoding="utf-8"?>
<!-- Generator: Adobe Illustrator 26.4.1, SVG Export Plug-In . SVG Version: 6.00 Build 0)  -->
<svg version="1.0" id="katman_1" xmlns="http://www.w3.org/2000/svg" xmlns:xlink="http://www.w3.org/1999/xlink" x="0px" y="0px"
	 viewBox="0 0 841.89 595.28" style="enable-background:new 0 0 841.89 595.28;" xml:space="preserve">
<style type="text/css">
	.st0{clip-path:url(#SVGID_00000158012936275098406370000007853546861781704580_);}
	.st1{fill:#2C2A29;stroke:#2C2A29;stroke-width:1.6392;stroke-miterlimit:2.047;}
	.st2{fill:#FFFFFF;}
	.st3{fill:#2C2A29;}
	.st4{fill:#D1C29C;}
	.st5{fill:#FFD203;}
	.st6{fill:#F8AA12;}
</style>
<g>
	<defs>
		<rect id="SVGID_1_" x="184.22" y="34.61" width="634.79" height="497.39"/>
	</defs>
	<clipPath id="SVGID_00000063594604488606397270000013186822750467847556_">
		<use xlink:href="#SVGID_1_"  style="overflow:visible;"/>
	</clipPath>
	<g style="clip-path:url(#SVGID_00000063594604488606397270000013186822750467847556_);">
		<path class="st1" d="M662.33,400.1l-26.89-7.93c-2.36-0.69-3.51,0.06-4.69,2l-8.26,13.15c-0.4-1.88-2.05-3.22-3.97-3.25
			l-26.36-0.3c-2.16-0.07-3.05,1.15-3.93,2.85l-1.67,3.15c-0.42-1.25-0.85-2.5-1.31-3.74c-0.58-1.62-2.12-2.69-3.84-2.69
			l-29.68-0.23c-2.26,0-3.21,1.21-3.87,2.82l-1.35,3.28c-0.45-1.39-1.05-2.72-1.8-3.97l7.28-20.82c0.39-1.15,0.56-2.03,0.43-2.98
			l-2.92-17.97c-0.19-1.16-0.87-2.19-1.87-2.82l2.98-9.41c2.1-6.62,1.54-13.08-1.51-18.27l0.89-2.98
			c30.27,1.64,43.22-17.51,47.74-29.15l28.66-73.45c2.92-7.12,5.67-16.76,5.67-29.71c0-36.17-23.08-64.53-67.71-64.53l-58.04,0.33
			c-2.72,0-3.74,1.8-4.07,4.2l-9.41,68.63l-164.77-2.2l-12.66-65.94c-0.43-2.2-1.71-4.2-4.07-4.2l-106.93-0.72
			c-2.16,0-4,1.71-4.13,3.87c-0.75,12.95-1.8,35.28-2.23,49.28c0,0.95,0.39,2.46,0.85,3.54l28.2,69.32
			c0.13,12,0.43,22.76,0.95,31.94c0.03,0.82,0.49,1.9,0.79,2.59l22.89,52.63c-0.89,3.64-1.28,7.67-1.15,12.03
			c0.2,7.12,1.54,13.15,4.07,18.1l12.53,26.92l-28.4,0.2c-1.97,0-3.67,1.44-4,3.41c-0.3,1.64-0.59,3.54-0.92,5.54l-3.71-6
			c-0.98-1.57-2.16-2.66-3.93-2.59l-35.41,1.02c-2.16,0.07-3.9,1.77-3.97,3.94c-0.16,3.9-2.43,59.29-2.03,81.03
			c0,1.31,0.66,2.2,1.51,3.05L221,528.71c0.95,0.98,1.97,1.74,3.34,1.74l21.61-0.36c1.9-0.03,4.16-1.61,4-4.46
			c0.7,0.44,1.51,0.66,2.33,0.62l20.07-0.62c0.52,0,0.98-0.13,1.44-0.33l1.84,2.59c0.92,1.31,2.1,2.23,3.7,2.2l21.54-0.36
			c2.26-0.03,4.16-1.84,4.03-4.36l-0.75-13.02l1.97,3.74c0.86,1.7,1.88,3.31,3.05,4.82c5.61,7.18,14.1,10.85,25.22,10.85
			c14.26,0,22.85-6.69,27.58-15.38l2.85,10.46c0.66,2.36,2.53,3.51,4.1,3.48l24.33-0.36c1.09-0.01,2.13-0.46,2.89-1.25
			c0.76-0.78,1.17-1.83,1.15-2.92c0-1.8-0.13-3.93-0.23-6.26c5.54,7.38,13.74,11.28,24.1,11.28c7.61,0,9.74-1.9,10.2-2.39
			c0.75,0.79,1.87,1.28,2.95,1.28l21.97,0.06c2.2,0,3.74-1.74,4.1-3.93l0.16-1.08c0.2,0.69,0.39,1.34,0.59,1.9
			c0.52,1.71,2.1,2.85,3.9,2.85l26.13,0.1c1.97,0,3.28-1.15,4-3.28l0.26-0.82c0.16,1.38,1.18,3.48,3.84,3.64
			c3.08,0.2,20.59,1.18,23.61,1.34c2.33,0.13,3.44-1.9,3.87-2.79l1.05-2.13c0.14,0.81,0.51,1.57,1.08,2.16
			c0.76,0.79,1.79,1.24,2.89,1.28l22.13,0.39c1.61,0,2.82-1.02,3.74-2.39l0.53-0.79c0,0,0.1,0.33,0.13,0.46
			c0.53,1.71,2.1,2.89,3.87,2.89l26,0.3c1.48,0,2.59-0.82,3.54-2.03l28.1-35.61c0.66-0.82,1.21-1.71,1.25-2.79
			c0.23-5.67,0.46-11.18,0.62-16.53l29.41-39.87c6.89-9.31,12.56-20.1,14.1-28.2c0.39-2.06-0.84-4.09-2.85-4.69V400.1L662.33,400.1z
			"/>
		<path class="st2" d="M283.53,327.21c-19.84,0.49-29.35,12.36-28.86,31.15c0.49,18.79,9.71,29.68,29.55,29.18
			c19.71-0.49,29.22-12.36,28.76-31.15c-0.49-18.79-9.58-29.71-29.41-29.18H283.53L283.53,327.21z M288.71,357.12
			c0.2,8.1-0.69,13.51-4.56,13.61c-3.87,0.1-5.02-5.25-5.21-13.05c-0.2-7.8,0.85-13.51,4.56-13.61
			C287.36,343.97,288.51,349.31,288.71,357.12z M359.24,356.23c-0.39-6.46-0.82-12.89-1.21-19.35c-2.89,0.2-10.46,0.43-13.38,0.53
			c-2.1-9.02,2.69-11.08,13.21-9.05l4.49-21.44c-4.98-3.12-11.15-4.53-16.43-4.85c-15.05-0.92-31.97,12.1-20.33,35.18
			c-2.3-0.1-4.62-0.2-6.92-0.36c-0.2,6.46-0.39,12.92-0.56,19.38c2.53,0.16,5.02,0.26,7.54,0.36c0,0,0.1,27.28,0.13,29.84
			l24.43-1.31l-0.53-28.46c3.18-0.1,6.39-0.26,9.58-0.46C359.27,356.23,359.24,356.23,359.24,356.23z M232.14,291.37l51.22-0.26
			c-1.21-27.28-2.82-72.34-2.52-103.65l29.38,0.23c0.23-14.13,0.72-36.89,1.05-49.58l-106.93-0.72c-0.75,13.28-1.84,36.4-2.23,50.07
			l29.48,0.23c-0.52,31.71-1.05,76.5,0.53,103.68C232.11,291.37,232.14,291.37,232.14,291.37z M564.32,137.29l-58.04,0.33
			c1.15,47.68,0.56,106.27-0.62,153.76h51.58c0.23-7.44,0.72-26.95,0.85-39.25c42.73,10.1,70.2-15.41,69.78-54.33
			c-0.59-36.33-22.99-60.53-63.58-60.53C564.28,137.25,564.32,137.29,564.32,137.29z M557.95,219.43
			c0.06-11.12,0.43-28.95,0.36-40.33c14.23-0.26,19.08,7.31,19.22,19.87C577.66,212.31,569.76,220.57,557.95,219.43z M318.61,405.65
			c-23.48,0-34.4,16.89-34.43,43.15c0.03,27.94,10.69,42.76,34.17,42.76c23.51,0,33.91-16.89,33.91-43.15
			C352.26,420.47,342.12,405.65,318.61,405.65z M318.45,471c-6.16,0-7.31-11.31-7.31-22.79c0-11.18,0.39-22,6.98-22
			c6.13,0,7.18,11.31,7.21,22.79C325.34,460.18,325.07,471,318.45,471z M592.09,407.91c0.1,7.94,1.28,19.64,1.25,27.15l-3.38,0.1
			c-0.59-3.44-6.16-20.95-8.62-27.68l-29.68-0.23c0.1,24.43-0.2,56.53-1.02,80.96l25.97,0.46c0.26-7.67-0.33-18.92-0.16-26.36
			l3.25-0.1c0.56,3.28,4.49,19.48,6.69,26.66l30.53,0.33c1.08-25.71,1.93-55.38,1.54-81.03l-26.36-0.3
			C592.09,407.88,592.09,407.91,592.09,407.91z M477.22,408.14c0.16,7.94,1.28,19.48,1.31,27.12l-3.38,0.13
			c-0.62-3.44-5.71-20.69-8.2-27.41l-30.46-0.33c0.33,24.36-0.07,57.12-0.62,81.42l25.84,0.06c0.23-7.67,0.1-19.12,0.2-26.46
			l3.25-0.13c0.59,3.25,4.59,19.02,6.89,26.26l30.72,0.13c0.82-25.74,1.25-55.15,0.59-80.86h-26.17
			C477.19,408.07,477.22,408.14,477.22,408.14z M238.8,407.78c-1.77,10.17-4.33,29.28-4.59,32.73h-3.25
			c-0.39-3.61-3.15-23.12-4.62-32.36l-35.41,1.02c-1.02,25.64-2.49,55.32-2.03,80.8c8.46-0.13,16.89-0.3,25.35-0.43
			c-0.72-12.62-2.2-25.25-2.62-37.91l3.21-0.1c0.49,3.87,4.59,24.86,6.79,33.51l23.61-0.72c1.67-8.95,5.02-29.61,5.44-33.41
			l3.21,0.07c0.07,12.66-0.69,26.13-0.36,38.63c8.46-0.13,16.89-0.3,25.35-0.43c-1.61-25.54-3.02-55.88-3.8-81.62l-36.27,0.26
			L238.8,407.78L238.8,407.78z M426.1,460.24c-5.9,0.52-11.08-0.79-12.72-3.74c7.71-3.74,12.62-14.59,12.43-21.87
			c-0.49-16.59-11.12-26.66-30.1-26.36c-12.26,0.2-26.95,0.43-38.07,0.59c1.57,26.92,1.51,51.94,1.25,80.96
			c0,0,27.84-0.43,28.63-0.43c-0.13-6.98-1.08-19.22-1.18-26.36h2.66c3.34,15.18,12.53,27.38,31.41,27.38c3.8,0,6.13-0.43,8.43-1.25
			c-0.69-8.03-1.97-21.45-2.69-28.92C426.13,460.24,426.1,460.24,426.1,460.24z M386.43,447.85c-0.1-4.72-0.36-13.12-0.46-17.9
			c5.71-0.49,11.64,0.43,11.94,7.67C398.26,446.5,392.2,447.85,386.43,447.85z M514.74,441.45c0.03,13.8-0.53,32.23-2.13,46.99
			c6.82,0.43,20.3,1.15,27.48,1.57c0.82-14.39,1.31-34.5,1.25-48.92C534.44,441.16,521.46,441.39,514.74,441.45z M526.47,401.02
			c-10.1,0.66-15.67,5.84-15.25,16.46c0.39,10.56,6.66,15.74,16.79,15.61c10.07-0.13,16.03-5.21,15.64-16.4
			c-0.46-11.21-7.08-16.33-17.15-15.67C526.51,401.02,526.47,401.02,526.47,401.02z M634.29,396.1c0.23,11.48-3.71,28.17-8.95,36.17
			l9.94,11.12c10.56-7.08,23.58-27.45,25.87-39.35l-26.89-7.94C634.26,396.1,634.29,396.1,634.29,396.1z M528.51,387.51
			c7.48-0.36,14.4-2,19.87-5.02l-2.95-18.33c-4.79,2.62-9.64,3.8-14.66,4.07c-6,0.3-9.18-4.1-9.94-7.18
			c8.69,2.16,27.71-0.85,26.89-18.49c-0.56-11.61-12-18.07-24.79-17.44c-17.15,0.82-27.68,15.48-26.82,33.91
			C497.03,378.4,509.65,388.43,528.51,387.51z M524.83,340.36c3.87-0.2,5.74,2.3,5.74,4.56c0,3.84-3.38,8.1-12.3,6.72
			c-0.1-6.33,1.84-11.05,6.59-11.25C524.87,340.39,524.83,340.36,524.83,340.36z M419.02,366.39c-2.56,0.07-4.1-1.21-4.03-5.25
			v-8.62c3.21-0.1,6.43-0.26,9.64-0.46c-0.39-6.46-0.82-12.89-1.21-19.35c-2.82,0.16-5.61,0.3-8.43,0.39v-18.33
			c-3.11,0.3-6.22,0.45-9.35,0.46c-2.33,0-4.62-0.1-6.95-0.26c-1.77,10.26-4.66,18.43-14.56,19.94c-0.2,6.46-0.43,10.69-0.62,17.18
			c2.33,0.13,4.66,0.26,6.98,0.33v11.05c0,16.56,7.21,25.02,22.1,24.04c5.38-0.33,9.25-1.18,13.21-2.89
			c-1.01-6.51-1.91-13.04-2.69-19.58c-1.21,0.75-3.15,1.28-4.13,1.31C418.99,366.36,419.02,366.39,419.02,366.39z M490.37,348.59
			c-0.23-14.26-7.31-22.92-18.53-22.17c-4.75,0.3-11.61,2.56-15.38,6.66c0.13-8.69,0.16-21.51,0.59-31.15
			c-7.66,4.42-15.87,7.79-24.43,10.03c-1.08,24.33-0.79,49.12,0.75,73.39c8.16-0.52,16.3-1.02,24.46-1.54
			c-0.62-9.84-1.02-20.63-1.25-30.66c2.76-1.64,8.95-3.25,8.95,6.26c0,11.58,0,16.26-0.52,24.99c8.16,0.53,16.3,1.02,24.46,1.54
			c0.82-12.95,1.12-24.4,0.92-37.38L490.37,348.59z"/>
		<path class="st3" d="M408.72,113.12c-4.39,0.01-8.08-3.3-8.53-7.67l-5.97-54.76c-0.43-4.03,0.85-8.07,3.57-11.08
			c2.7-3.03,6.57-4.76,10.62-4.75h0.69c4.03,0,7.9,1.74,10.62,4.75c2.7,3.03,4,7.05,3.57,11.08l-5.97,54.76
			c-0.49,4.36-4.13,7.67-8.53,7.67C408.82,113.12,408.72,113.12,408.72,113.12z M440.14,117.58c-1,0-1.99-0.17-2.92-0.53l-0.26-0.1
			c-4.03-1.48-6.36-5.74-5.44-9.9l8.72-40c0.89-4.03,3.44-7.48,7.05-9.44c3.61-2,7.9-2.33,11.77-0.92c3.87,1.41,6.94,4.42,8.43,8.26
			c1.48,3.84,1.24,8.12-0.65,11.77l-19.02,36.27c-1.51,2.89-4.52,4.59-7.64,4.59C440.17,117.58,440.14,117.58,440.14,117.58z
			 M468.17,130.33c-2.02,0.01-3.97-0.7-5.51-2c-3.37-2.81-4.07-7.71-1.61-11.35l30.63-45.81c2.26-3.36,5.83-5.61,9.84-6.2
			c4.01-0.56,8.07,0.59,11.18,3.18l0.52,0.43c3.12,2.59,4.95,6.39,5.08,10.46c0.13,4.05-1.47,7.96-4.39,10.76l-39.78,38.1
			c-1.67,1.57-3.8,2.39-5.93,2.39C468.21,130.3,468.17,130.33,468.17,130.33z M491.72,150.6c-2.98,0-5.9-1.57-7.48-4.3l-0.13-0.23
			c-2.13-3.71-1.21-8.49,2.2-11.08l32.4-25.05c3.25-2.52,7.44-3.51,11.48-2.72c4.03,0.79,7.52,3.29,9.58,6.85
			c2.07,3.56,2.49,7.85,1.15,11.74c-1.33,3.9-4.29,7.03-8.1,8.59l-37.87,15.54c-1.05,0.43-2.16,0.62-3.25,0.62
			C491.68,150.57,491.72,150.6,491.72,150.6z M377.31,117.58c-3.2-0.01-6.13-1.77-7.64-4.59l-19.02-36.27
			c-1.9-3.64-2.16-7.94-0.66-11.77c1.48-3.84,4.56-6.86,8.43-8.26c3.87-1.41,8.17-1.08,11.77,0.92c3.59,1.99,6.16,5.43,7.05,9.44
			l8.72,40c0.92,4.2-1.44,8.43-5.44,9.9l-0.26,0.1c-0.93,0.35-1.92,0.53-2.92,0.52H377.31z M349.27,130.33
			c-2.13,0-4.3-0.79-5.93-2.39l-39.78-38.1c-2.92-2.8-4.52-6.71-4.39-10.76c0.14-4.05,1.99-7.85,5.08-10.46l0.53-0.43
			c3.12-2.59,7.18-3.77,11.18-3.18c4.02,0.56,7.6,2.82,9.84,6.2l30.63,45.81c2.43,3.64,1.74,8.52-1.61,11.35
			c-1.54,1.29-3.49,2-5.51,2L349.27,130.33L349.27,130.33z M325.73,150.6c-1.11,0-2.21-0.21-3.25-0.62l-37.87-15.54
			c-3.81-1.57-6.76-4.7-8.1-8.59c-1.34-3.89-0.92-8.18,1.15-11.74c2.05-3.56,5.54-6.06,9.58-6.85c4.04-0.79,8.22,0.2,11.48,2.72
			l32.4,25.05c3.38,2.62,4.33,7.38,2.2,11.08l-0.13,0.23c-1.55,2.66-4.4,4.3-7.48,4.3C325.7,150.63,325.73,150.6,325.73,150.6z
			 M408.72,124.79c-48.5,0-88.08,38.86-89.29,87.06c-8.43,0.72-15.81,4.39-20.89,10.56c-5.67,6.92-7.87,16.03-6.16,25.74
			c3.48,19.64,22.27,35.61,41.94,35.61h11.05c4.53,0,8.92,1.38,12.66,3.97c14.95,10.33,32.46,15.77,50.69,15.77
			c49.25,0,89.36-40.07,89.36-89.36S458.01,124.79,408.72,124.79z M316.35,243.92c-0.46-2.59-0.1-4.75,1.02-6.07
			c1.18-1.41,3.15-1.77,4.72-1.84c2.04,8.1,5.22,15.88,9.44,23.08c-6.98-1.48-13.9-8.16-15.15-15.18
			C316.38,243.92,316.35,243.92,316.35,243.92z"/>
		<path class="st2" d="M302.38,225.56c-4.75,5.77-6.56,13.48-5.12,21.74c3.05,17.38,19.67,31.54,37.05,31.54h11.05
			c5.54,0,10.89,1.67,15.48,4.82c14.1,9.74,30.66,14.89,47.91,14.89c45.71,0,83.06-36.53,84.37-81.94h-10.56
			c0.13,4.72-0.26,9.9-1.51,15.58c-6.52,30.27-34.4,50.53-58.6,54.86c-5.13,0.93-10.33,1.4-15.54,1.41c-8.2,0-17.54-1.28-25.97-5.51
			c-7.61-3.84-15.35-13.08-15.35-23.38c0-11.71,8.66-21.45,20.04-22.99c0.26-2.1,0.62-4.49,1.41-6.46
			c1.31-3.34,5.28-6.92,10.07-6.92c5.8,0,10.49,4.72,10.49,10.53c0,1.8-0.69,4.95-1.28,7.28c-0.82,3.31,2.79,4.59,3.21,4.72
			c5.25,1.71,16.43-1.61,23.58-8.62c4.2-4.1,8.56-10.92,6.36-20.53H321.86c-7.97,0.13-14.92,3.31-19.54,8.92
			C302.32,225.49,302.38,225.56,302.38,225.56z M313.6,234.68c1.97-2.36,5.05-3.61,8.89-3.61h1.54c1.15,0,2.16,0.79,2.39,1.93
			c2.23,9.81,6.22,19.13,11.77,27.51c0.49,0.75,0.56,1.74,0.1,2.52c-0.43,0.79-1.28,1.31-2.16,1.31h-1.84
			c-10.33,0-20.99-9.15-22.82-19.58c-0.72-4.07,0-7.64,2.1-10.1C313.56,234.68,313.6,234.68,313.6,234.68z"/>
		<path class="st4" d="M422.46,287.04c-5.13,0.93-10.33,1.4-15.54,1.41c-8.2,0-17.54-1.28-25.97-5.51
			c-6.49-3.25-13.02-10.43-14.82-18.85c-13.87-12.2-23.84-28.76-27.74-47.51h-16.53c-7.97,0.13-14.92,3.31-19.54,8.92
			c-4.75,5.77-6.56,13.48-5.12,21.74c3.05,17.38,19.68,31.54,37.05,31.54h11.05c5.54,0,10.89,1.67,15.48,4.82
			c14.1,9.74,30.66,14.89,47.91,14.89c1.48,0,2.92-0.03,4.36-0.1c0.46,0,0.92-0.07,1.38-0.1c0.98-0.06,1.97-0.14,2.95-0.23l1.57-0.2
			c0.9-0.1,1.79-0.22,2.69-0.36c0.53-0.1,1.05-0.2,1.61-0.3c0.89-0.16,1.74-0.3,2.59-0.49c0.53-0.1,1.05-0.23,1.57-0.36
			c0.85-0.2,1.74-0.39,2.56-0.62c0.49-0.13,0.98-0.26,1.51-0.43c0.85-0.23,1.71-0.49,2.56-0.75c0.46-0.16,0.95-0.3,1.41-0.46
			c0.85-0.3,1.74-0.59,2.59-0.92c0.43-0.16,0.85-0.33,1.31-0.49c0.89-0.33,1.74-0.69,2.59-1.05c0.39-0.16,0.79-0.36,1.18-0.53
			c0.89-0.39,1.77-0.82,2.62-1.25c0.36-0.16,0.72-0.36,1.08-0.52c0.89-0.46,1.78-0.93,2.66-1.41c0.33-0.16,0.62-0.36,0.95-0.53
			c0.91-0.52,1.8-1.05,2.69-1.61c0.26-0.16,0.56-0.33,0.82-0.53c0.92-0.59,1.84-1.18,2.72-1.8c0.23-0.16,0.46-0.3,0.66-0.46
			c0.92-0.66,1.84-1.34,2.75-2.03c0.16-0.13,0.36-0.26,0.52-0.39c0.94-0.75,1.87-1.51,2.79-2.3c0.13-0.1,0.26-0.2,0.36-0.33
			c0.95-0.82,1.9-1.71,2.85-2.56l0.2-0.2c0.98-0.95,1.97-1.9,2.89-2.89c-12,7.57-25.97,12.3-40.96,13.18
			c-2.08,0.61-4.19,1.1-6.33,1.48C422.4,286.98,422.46,287.04,422.46,287.04z M338.32,263.04c-0.43,0.79-1.28,1.31-2.16,1.31h-1.84
			c-10.33,0-20.99-9.15-22.82-19.58c-0.72-4.07,0-7.64,2.1-10.1c1.97-2.36,5.05-3.61,8.89-3.61h1.54c1.15,0,2.16,0.79,2.39,1.93
			c2.23,9.81,6.22,19.13,11.77,27.51c0.49,0.75,0.56,1.74,0.1,2.52C338.29,263.04,338.32,263.04,338.32,263.04z"/>
		<path class="st5" d="M408.72,129.71c45.71,0,83.03,36.53,84.34,81.94h-10.85c-1.25-11.64-5.54-19.48-7.35-22.3
			c-0.72-1.15-2.26-1.48-3.41-0.75c-1.15,0.72-1.48,2.26-0.76,3.41c2.92,4.62,5.54,11.44,6.49,19.67c0.2,1.61,0.3,3.25,0.36,4.92
			c0.15,4.88-0.3,9.76-1.34,14.53c-6.07,28.13-32.07,46.99-54.66,51.05c-6.89,1.25-24.46,3.38-38.4-3.64
			c-6.1-3.08-12.62-10.76-12.62-18.99c0-9.77,7.64-17.8,17.41-18.23c1.21-0.06,2.2-0.95,2.33-2.16l0.13-1.02
			c0.23-2,0.52-4.53,1.21-6.23c0.62-1.57,2.85-3.77,5.48-3.77c3.08,0,5.57,2.49,5.57,5.57c0,0,0,0.01,0,0.01
			c0,0.95-0.46,3.34-1.12,6.07c-1.34,5.41,2.39,9.31,6.46,10.62c6.72,2.2,19.81-1.21,28.56-9.77c7.25-7.08,9.9-16.13,7.61-25.61
			c-0.13-0.52-0.26-1.08-0.43-1.64c-0.23-0.77-0.81-1.38-1.57-1.64c-0.07,0-0.13,0-0.2-0.03c-0.2-0.03-0.39-0.1-0.59-0.1H324.35
			c1.31-45.42,38.63-81.94,84.34-81.94C408.69,129.68,408.72,129.71,408.72,129.71z"/>
		<path class="st3" d="M414.56,155.03c0,0-0.3,0-0.46-0.03c-1.34-0.25-2.22-1.53-1.97-2.87c0,0,0-0.01,0-0.01
			c1.12-5.87,4.92-11.81,10.92-11.81c6.56,0,9.97,6.39,10.92,11.87c0.22,1.34-0.67,2.61-2,2.85c-1.34,0.22-2.61-0.67-2.85-2
			c-0.13-0.79-1.48-7.77-6.03-7.77c-3.61,0-5.54,5.12-6.07,7.8c-0.22,1.16-1.24,2.01-2.43,2
			C414.59,155.06,414.56,155.03,414.56,155.03z"/>
		<path class="st3" d="M408.72,196.47c33.18,0,50.56-20.36,50.56-40.46c0-1.36-1.1-2.46-2.45-2.46c0,0,0,0-0.01,0
			c-1.35,0.01-2.45,1.11-2.46,2.46c0,17.64-15.67,35.54-45.61,35.54c-29.94,0-45.61-17.87-45.61-35.54c0-1.36-1.1-2.46-2.45-2.46
			c0,0,0,0-0.01,0c-1.35,0.01-2.45,1.11-2.46,2.46c0,20.1,17.38,40.46,50.56,40.46C408.79,196.47,408.72,196.47,408.72,196.47z"/>
		<path class="st3" d="M385.54,154.99c1.34,0.22,2.61-0.67,2.85-2c0.13-0.79,1.48-7.77,6.03-7.77c3.61,0,5.54,5.12,6.07,7.8
			c0.22,1.16,1.24,2.01,2.43,2c0.16,0,0.3,0,0.46-0.03c1.34-0.25,2.22-1.53,1.97-2.87c0,0,0-0.01,0-0.01
			c-1.12-5.87-4.92-11.81-10.92-11.81c-6.56,0-9.97,6.39-10.92,11.87c-0.22,1.34,0.67,2.61,2,2.85
			C385.51,155.03,385.54,154.99,385.54,154.99z"/>
		<path class="st6" d="M324.39,211.66h13.15c-0.63-4.23-0.95-8.51-0.95-12.79c0-15.84,4.23-30.69,11.64-43.48
			C333.99,170.04,325.01,189.82,324.39,211.66z"/>
		<path class="st5" d="M495.78,73.9l-30.63,45.81c-1.05,1.54-0.75,3.63,0.69,4.82c1.43,1.2,3.54,1.13,4.89-0.16l39.78-38.1
			c1.91-1.84,2.95-4.4,2.85-7.05c-0.1-2.66-1.31-5.15-3.31-6.82l-0.53-0.43c-1.67-1.41-3.8-2.16-6-2.16c-0.43,0-0.89,0-1.31,0.1
			c-2.62,0.37-4.96,1.83-6.43,4.03C495.78,73.93,495.78,73.9,495.78,73.9z M462.86,66.72c-0.98-2.52-2.98-4.46-5.51-5.41
			c-1.05-0.36-2.1-0.56-3.18-0.56c-1.57,0-3.11,0.4-4.49,1.15c-2.35,1.3-4.03,3.54-4.62,6.16l-8.72,40
			c-0.39,1.77,0.62,3.57,2.33,4.2l0.26,0.1c1.71,0.62,3.64-0.13,4.49-1.74l19.02-36.27c1.25-2.39,1.41-5.2,0.43-7.71
			C462.86,66.65,462.86,66.72,462.86,66.72z M529.26,112.07c-0.59-0.13-1.21-0.16-1.8-0.16c-2.06,0.01-4.06,0.69-5.71,1.93
			l-32.4,25.05c-1.44,1.12-1.84,3.14-0.92,4.72l0.13,0.23c0.92,1.58,2.87,2.23,4.56,1.54L531,129.84c2.49-1.02,4.41-3.06,5.28-5.61
			c0.86-2.55,0.58-5.34-0.75-7.67C534.18,114.24,531.9,112.6,529.26,112.07z M416,42.91c-1.77-1.98-4.3-3.11-6.95-3.12h-0.69
			c-2.66-0.01-5.19,1.13-6.95,3.12c-1.78,1.97-2.62,4.61-2.33,7.25l5.97,54.76c0.2,1.87,1.77,3.25,3.64,3.25
			c1.87,0,3.44-1.41,3.64-3.25l5.97-54.76c0.29-2.64-0.56-5.27-2.33-7.25C415.97,42.91,416,42.91,416,42.91z M306.97,86.26
			l39.78,38.1c1.34,1.28,3.44,1.34,4.89,0.16c1.44-1.21,1.74-3.28,0.69-4.82L321.7,73.9c-1.47-2.2-3.81-3.67-6.43-4.03
			c-2.62-0.36-5.28,0.4-7.31,2.1l-0.52,0.43c-2.03,1.71-3.25,4.2-3.31,6.82C304.03,81.86,305.06,84.43,306.97,86.26L306.97,86.26z
			 M295.73,113.84c-2.13-1.65-4.87-2.29-7.51-1.77c-2.64,0.53-4.92,2.17-6.26,4.49c-1.34,2.33-1.61,5.12-0.76,7.67
			c0.86,2.55,2.79,4.6,5.28,5.61l37.87,15.54c1.67,0.69,3.64,0,4.56-1.54l0.13-0.23c0.92-1.58,0.53-3.6-0.92-4.72
			C328.12,138.89,295.73,113.84,295.73,113.84z M374.06,110.69c0.85,1.61,2.79,2.36,4.49,1.74l0.26-0.1
			c1.71-0.62,2.72-2.43,2.33-4.2l-8.72-40c-0.57-2.63-2.26-4.88-4.62-6.17c-2.35-1.3-5.15-1.52-7.67-0.59
			c-2.53,0.93-4.54,2.9-5.51,5.41c-0.98,2.51-0.82,5.32,0.43,7.71l19.02,36.27V110.69z"/>
		<path class="st3" d="M624.03,149.32v-8.1h-2.26v-3.94h8.36v3.94h-2.26v8.1C627.86,149.32,624.03,149.32,624.03,149.32z
			 M640.72,149.32l0.06-5.74h-0.2c0,0.39-0.03,0.69-0.1,0.95l-0.92,4.59h-3.54l-0.92-4.59c-0.07-0.31-0.1-0.63-0.1-0.95h-0.2
			l0.07,5.74h-3.77l0.36-12.03h5.54l0.62,4.1c0.03,0.26,0.07,0.46,0.07,0.82h0.2c0-0.36,0-0.53,0.07-0.82l0.62-4.1h5.54l0.36,12.03
			C644.49,149.32,640.72,149.32,640.72,149.32z"/>
	</g>
</g>
</svg>
